<?xml version="1.0" encoding="UTF-8" standalone="no"?><!-- Generator: Gravit.io --><svg xmlns="http://www.w3.org/2000/svg" xmlns:xlink="http://www.w3.org/1999/xlink" style="isolation:isolate" viewBox="0 0 448 512" width="448pt" height="512pt"><defs><clipPath id="_clipPath_8rTHqbPCt6L1xAi70S8K8vHS1lEnJ5vC"><rect width="448" height="512"/></clipPath></defs><g clip-path="url(#_clipPath_8rTHqbPCt6L1xAi70S8K8vHS1lEnJ5vC)"><path d=" M 323.56 51.2 C 302.76 70.5 283.98 90.79 267.34 111.17 C 240.08 73.62 206.28 35.53 168 0 C 69.74 91.17 0 209.96 0 281.6 C 0 408.85 100.29 512 224 512 C 347.71 512 448 408.85 448 281.6 C 448 228.33 396.02 118.46 323.56 51.2 L 323.56 51.2 Z  M 224 464 C 126.95 464 48 382.17 48 281.6 C 48 236.23 92.3 148.39 168.16 67.51 C 190.5 90.87 210.98 115.23 228.5 139.37 L 265.12 189.81 L 304.53 141.52 C 310.36 134.37 316.38 127.37 322.54 120.55 C 368.89 177.96 400 250.42 400 281.6 C 400 382.17 321.05 464 224 464 Z  M 313.47 243.16 L 262.17 301.68 C 262.17 301.68 181.75 198.98 175.69 192 C 133.27 242.86 112 272.62 112 306.41 C 112 374.23 163.37 416 226.5 416 C 251.76 416 275.12 408.13 294.08 394.87 C 337.16 364.73 347.26 306.29 323.34 260.63 C 320.39 255.01 317.1 249.15 313.47 243.16 L 313.47 243.16 Z " fill="rgb(0,0,0)"/></g></svg>