<?xml version="1.0" encoding="UTF-8" standalone="no"?><!-- Generator: Gravit.io --><svg xmlns="http://www.w3.org/2000/svg" xmlns:xlink="http://www.w3.org/1999/xlink" style="isolation:isolate" viewBox="0 0 512 512" width="512pt" height="512pt"><defs><clipPath id="_clipPath_HT02Qzs4rWucCX5xLn2IKCUF9aSBUl2w"><rect width="512" height="512"/></clipPath></defs><g clip-path="url(#_clipPath_HT02Qzs4rWucCX5xLn2IKCUF9aSBUl2w)"><path d=" M 448 64 L 64 64 C 28.65 64 0 92.65 0 128 L 0 384 C 0 419.35 28.65 448 64 448 L 448 448 C 483.35 448 512 419.35 512 384 L 512 128 C 512 92.65 483.3 64 448 64 Z  M 64 112 L 448 112 C 456.822 112 464 119.178 464 128 L 464 150.16 L 297.2 288.26 C 274.01 307.54 237.86 307.53 214.73 288.276 L 48 150.2 L 48 128 C 48 119.2 55.18 112 64 112 Z  M 448 400 L 64 400 C 55.178 400 48 392.822 48 384 L 48 212.7 L 184.1 326.1 C 204.3 342.8 229.8 352 256 352 C 282.2 352 307.75 342.812 327.97 326.02 L 464 212.7 L 464 384 C 464 392.8 456.8 400 448 400 Z " fill="rgb(0,0,0)"/></g></svg>