<?xml version="1.0" encoding="UTF-8" standalone="no"?><!-- Generator: Gravit.io --><svg xmlns="http://www.w3.org/2000/svg" xmlns:xlink="http://www.w3.org/1999/xlink" style="isolation:isolate" viewBox="0 0 512 512" width="512pt" height="512pt"><defs><clipPath id="_clipPath_THbGaxkCs02mh6sgdDoMofHQ47Tr4gp1"><rect width="512" height="512"/></clipPath></defs><g clip-path="url(#_clipPath_THbGaxkCs02mh6sgdDoMofHQ47Tr4gp1)"><path d=" M 459.68 179.63 L 398.9 159.14 C 389.09 155.82 381.96 149.19 379.9 141.44 L 365.37 87.5 C 358.56 62.04 337.72 42.5 309.66 35.06 C 278.78 26.96 246.54 35.21 225.41 56.68 L 183.6 99.25 C 176.6 106.41 165.01 110.25 153.45 109.39 L 88.33 104.39 C 54.58 101.85 23.27 117.58 8.4 144.58 C -4.45 167.96 -2.48 194.9 13.77 216.64 L 48.67 263.44 C 53.3 269.61 53.99 276.6 50.67 283.11 L 25 334 C 13.15 357.36 15.75 383.83 31.93 404.85 C 51.14 429.76 84.83 441.29 118 434.2 L 181.4 420.56 C 192.72 418.07 205.22 420.51 213.78 426.84 L 263 463.3 C 278.063 474.262 296.24 480.115 314.87 480 C 327.716 480.03 340.419 477.301 352.12 472 C 377.53 460.4 393.87 438.23 395.87 412.65 L 400.12 357.41 C 400.68 349.97 406.12 342.94 414.74 338.61 L 471 310.25 C 498.21 296.52 513.87 270.65 511.87 242.71 C 509.8 214 489.8 189.79 459.68 179.63 Z  M 449.33 267.37 L 393.12 295.72 C 369.4 307.72 354.12 329.36 352.25 353.72 L 348 408.93 C 347.12 420.31 336.65 426.26 332.22 428.29 C 321.97 432.98 305.22 434.81 291.56 424.73 L 242.35 388.26 C 227.66 377.41 209.13 371.62 190.35 371.62 C 183.964 371.616 177.595 372.287 171.35 373.62 L 107.95 387.26 C 90.95 390.99 76.54 384.01 69.95 375.49 C 65.08 369.16 64.36 362.49 67.83 355.66 L 93.57 304.78 C 105.01 282.19 102.57 255.34 87.2 234.71 L 52.21 187.9 C 47.3 181.32 46.71 174.52 50.46 167.72 C 54.86 159.72 66.89 150.85 84.64 152.22 L 149.76 157.22 C 175.01 159.22 200.88 150.12 217.85 132.86 L 259.66 90.31 C 268.53 81.23 283.44 77.77 297.44 81.46 C 308.66 84.4 316.69 91.29 319 99.92 L 333.5 153.92 C 339.78 177.21 358.5 196.16 383.59 204.62 L 444.36 225.12 C 456 229 463.3 236.9 464 246.12 C 464.58 254.64 459.24 262.39 449.33 267.37 Z  M 160 192 C 142.327 192 128 206.327 128 224 C 128 241.673 142.327 256 160 256 C 177.673 256 192 241.673 192 224 C 192 206.327 177.673 192 160 192 Z  M 288 288 C 270.327 288 256 302.327 256 320 C 256 337.673 270.327 352 288 352 C 305.673 352 320 337.673 320 320 C 319.972 302.346 305.654 288.05 288 288.05 L 288 288 Z  M 304 192 C 295.163 192 288 199.163 288 208 C 288 216.837 295.163 224 304 224 C 312.837 224 320 216.837 320 208 C 320 199.163 312.837 192 304 192 Z " fill="rgb(0,0,0)"/></g></svg>