<?xml version="1.0" encoding="UTF-8" standalone="no"?><!-- Generator: Gravit.io --><svg xmlns="http://www.w3.org/2000/svg" xmlns:xlink="http://www.w3.org/1999/xlink" style="isolation:isolate" viewBox="0 0 512 512" width="512pt" height="512pt"><defs><clipPath id="_clipPath_yYlLcDIHSHCRfVHaN1Pyfutzlyg6towm"><rect width="512" height="512"/></clipPath></defs><g clip-path="url(#_clipPath_yYlLcDIHSHCRfVHaN1Pyfutzlyg6towm)"><path d=" M 480.3 320.3 L 382.1 278.2 C 360.69 268.919 335.46 275.091 320.9 293.15 L 293.46 326.65 C 248.68 300.9 211.17 263.4 185.46 219.55 L 219.01 192.07 C 236.92 177.45 243.1 152.37 234.03 131.02 L 191.7 31.53 C 181.54 8.33 156.36 -4.33 131.83 1.34 L 40.58 22.4 C 16.7 27.86 0 48.83 0 73.39 C 0 315.29 196.7 511.99 438.6 511.99 C 463.16 511.99 484.13 495.3 488.7 471.46 L 509.76 380.12 C 516.4 355.5 503.6 330.3 480.3 320.3 Z  M 463.9 369.3 L 442.81 460.71 C 442.341 461.81 440.701 463.991 438.591 463.991 C 223.191 463.991 47.991 288.791 47.991 73.391 C 47.991 71.297 49.288 69.657 51.335 69.188 L 142.675 48.108 C 142.987 48.03 143.316 47.999 143.628 47.999 C 145.362 47.999 146.987 49.046 147.675 50.608 L 189.815 148.938 C 190.565 150.704 190.065 152.766 188.565 154 L 139.8 193.1 C 131.175 200.162 128.55 212.24 133.456 222.24 C 166.466 289.47 221.716 344.74 288.956 377.74 C 298.056 382.646 311.046 380.021 318.116 371.396 L 358.126 322.526 C 359.235 321.12 361.313 320.588 363.048 321.401 L 461.308 363.491 C 463.2 365.2 464.3 367.3 463.9 369.3 Z " fill="rgb(255,255,255)"/></g></svg>