<?xml version="1.0" encoding="UTF-8" standalone="no"?><!-- Generator: Gravit.io --><svg xmlns="http://www.w3.org/2000/svg" xmlns:xlink="http://www.w3.org/1999/xlink" style="isolation:isolate" viewBox="0 0 512 512" width="512pt" height="512pt"><defs><clipPath id="_clipPath_LL9uT5mTXjPM3JcQGOCNjYSgw2H4FZIq"><rect width="512" height="512"/></clipPath></defs><g clip-path="url(#_clipPath_LL9uT5mTXjPM3JcQGOCNjYSgw2H4FZIq)"><path d=" M 511.2 387 L 487.95 487.8 C 484.684 502.05 472.16 512.02 457.49 512.02 C 205.2 512 0 306.8 0 54.5 C 0 39.84 9.969 27.3 24.22 24.05 L 125.02 0.8 C 139.7 -2.602 154.7 5.018 160.8 18.92 L 207.32 127.42 C 212.758 140.2 209.09 155.09 198.34 163.87 L 144.5 207.1 C 178.48 276.32 234.76 332.6 304 366.6 L 348.08 312.8 C 356.768 302.02 371.77 298.29 384.55 303.825 L 493.05 350.335 C 506.1 357.2 514.6 372.4 511.2 387 Z " fill="rgb(255,255,255)"/></g></svg>