<?xml version="1.0" encoding="UTF-8" standalone="no"?><!-- Generator: Gravit.io --><svg xmlns="http://www.w3.org/2000/svg" xmlns:xlink="http://www.w3.org/1999/xlink" style="isolation:isolate" viewBox="0 0 448 512" width="448pt" height="512pt"><defs><clipPath id="_clipPath_2sO37arCa9NwqDeRMhrCLPLIJE6Ty3JX"><rect width="448" height="512"/></clipPath></defs><g clip-path="url(#_clipPath_2sO37arCa9NwqDeRMhrCLPLIJE6Ty3JX)"><path d=" M 78.54 102.4 L 78.54 146.44 C 119.1 164.9 169.4 176 223.1 176 C 276.8 176 328 164.92 368.6 146.45 L 368.6 102.4 L 390.56 80.1 C 395.124 75.465 397.689 69.17 397.689 62.62 C 397.689 51.27 390.087 41.38 379.249 38.63 L 230.949 0.96 C 225.853 -0.335 220.519 -0.335 215.429 0.96 L 67.129 38.63 C 57.06 41.39 49.46 51.28 49.46 62.62 C 49.46 69.175 52.024 75.47 56.589 80.1 L 78.54 102.4 L 78.54 102.4 Z  M 191.1 61.08 L 221.1 48.58 C 221.9 48.26 223.2 48 224 48 C 224.828 48 226.122 48.256 226.884 48.572 L 256.884 61.072 C 259.663 62.224 261.493 64.961 261.493 67.992 C 261.5 107.1 232.1 128 223.1 128 C 216.1 128 186.5 108.2 186.5 67.1 C 186.5 64.96 188.3 62.23 191.1 61.08 Z  M 224 272 C 182.77 272 149.1 240.49 144.85 200.36 C 128.1 197.1 112 192.8 96.45 187.5 C 96.4 189.1 96 190.5 96 192 C 96 262.69 153.31 320 223.1 320 C 292.89 320 350.2 262.69 350.2 192 C 350.2 190.475 349.842 189.059 349.789 187.547 C 336 192.8 319.9 197.1 303.2 200.4 C 298.9 240.5 265.2 272 224 272 Z  M 320 352 L 288 352 L 224 416 L 160 352 L 128 352 C 57.31 352 0 409.31 0 480 C 0 497.67 14.33 512 32 512 L 416 512 C 433.67 512 448 497.67 448 480 C 448 409.3 390.7 352 320 352 Z  M 49.61 464 C 57.04 427.5 89.37 400 128 400 L 140.12 400 L 204.12 464 L 49.61 464 L 49.61 464 Z  M 355.6 464 L 366.58 453.33 C 369.424 450.57 367.85 445.75 363.932 445.184 L 342.1 442 L 332.336 422.24 C 330.588 418.719 325.52 418.674 323.754 422.24 L 313.9 442 L 292.05 445.18 C 288.132 445.746 286.558 450.567 289.402 453.326 L 300.4 464 L 243.86 464 L 307.86 400 L 320 400 C 358.63 400 390.96 427.53 398.39 464 L 355.6 464 L 355.6 464 Z " fill="rgb(0,0,0)"/></g></svg>