<?xml version="1.0" encoding="UTF-8" standalone="no"?><!-- Generator: Gravit.io --><svg xmlns="http://www.w3.org/2000/svg" xmlns:xlink="http://www.w3.org/1999/xlink" style="isolation:isolate" viewBox="0 0 352 512" width="352pt" height="512pt"><defs><clipPath id="_clipPath_2uniMrZxzWHx7kqm6lOqs6siLR8wKeb3"><rect width="352" height="512"/></clipPath></defs><g clip-path="url(#_clipPath_2uniMrZxzWHx7kqm6lOqs6siLR8wKeb3)"><path d=" M 205.22 22.09 C 201.21 7.53 188.61 0 175.97 0 C 163.62 0 151.23 7.2 146.78 22.09 C 100.01 179.85 0 222.72 0 333.91 C 0 432.35 78.72 512 176 512 C 273.28 512 352 432.35 352 333.91 C 352 222.16 252.21 180.57 205.22 22.09 L 205.22 22.09 Z  M 176 464 C 105.42 464 48 405.64 48 333.91 C 48 290.58 68.67 260.96 99.96 216.12 C 124.11 181.51 152.94 140.2 176 83.66 C 199.15 140.49 228.02 181.76 252.2 216.32 C 283.39 260.9 304 290.35 304 333.92 C 304 405.64 246.58 464 176 464 Z  M 192 400 C 147.88 400 112 364.11 112 320 C 112 311.16 104.84 304 96 304 C 87.16 304 80 311.16 80 320 C 80 381.75 130.25 432 192 432 C 200.84 432 208 424.84 208 416 C 208 407.16 200.84 400 192 400 Z " fill="rgb(0,0,0)"/></g></svg>