<?xml version="1.0" encoding="UTF-8" standalone="no"?><!-- Generator: Gravit.io --><svg xmlns="http://www.w3.org/2000/svg" xmlns:xlink="http://www.w3.org/1999/xlink" style="isolation:isolate" viewBox="0 0 576 512" width="576pt" height="512pt"><defs><clipPath id="_clipPath_puk1mrNWTWFcKPS0Bg6O1uvacUtj9DnE"><rect width="576" height="512"/></clipPath></defs><g clip-path="url(#_clipPath_puk1mrNWTWFcKPS0Bg6O1uvacUtj9DnE)"><path d=" M 549.7 124.1 C 543.419 100.45 524.91 81.82 501.42 75.5 C 458.8 64 288 64 288 64 C 288 64 117.2 64 74.63 75.49 C 51.13 81.812 32.63 100.44 26.35 124.09 C 14.94 166.96 14.94 256.39 14.94 256.39 C 14.94 256.39 14.94 345.83 26.35 388.69 C 32.631 412.34 51.14 430.19 74.63 436.51 C 117.2 448 288 448 288 448 C 288 448 458.8 448 501.4 436.51 C 524.9 430.189 543.4 412.34 549.68 388.69 C 561.09 345.82 561.09 256.39 561.09 256.39 C 561.09 256.39 561.09 166.95 549.68 124.09 L 549.7 124.1 Z  M 232.2 337.6 L 232.2 175.2 L 374.9 256.41 L 232.2 337.61 L 232.2 337.6 Z " fill="rgb(0,0,0)"/></g></svg>